<svg width="51" height="52" viewBox="0 0 51 52" fill="none" xmlns="http://www.w3.org/2000/svg">
<g id="course.svg" clip-path="url(#clip0_1_1637)">
<g id="course">
<path id="Path 127" d="M31.1997 21.6905C32.9728 21.6905 34.7061 21.1647 36.1804 20.1796C37.6547 19.1945 38.8038 17.7944 39.4823 16.1562C40.1609 14.5181 40.3384 12.7155 39.9925 10.9764C39.6466 9.23739 38.7927 7.63997 37.5389 6.38619C36.2852 5.1324 34.6877 4.27856 32.9487 3.93264C31.2096 3.58672 29.4071 3.76426 27.7689 4.44281C26.1308 5.12135 24.7306 6.27042 23.7455 7.74472C22.7604 9.21902 22.2346 10.9523 22.2346 12.7254C22.2375 15.1022 23.183 17.3808 24.8636 19.0615C26.5443 20.7421 28.8229 21.6876 31.1997 21.6905ZM31.1997 5.38857C32.6504 5.38857 34.0685 5.81876 35.2747 6.62472C36.4809 7.43069 37.4211 8.57624 37.9762 9.91651C38.5314 11.2568 38.6766 12.7316 38.3936 14.1544C38.1106 15.5772 37.412 16.8842 36.3862 17.91C35.3604 18.9358 34.0535 19.6344 32.6306 19.9174C31.2078 20.2004 29.733 20.0551 28.3927 19.5C27.0525 18.9448 25.9069 18.0047 25.101 16.7985C24.295 15.5923 23.8648 14.1741 23.8648 12.7234C23.8677 10.7792 24.6415 8.91544 26.0165 7.54083C27.3915 6.16622 29.2554 5.39295 31.1997 5.39057V5.38857Z" fill="white"/>
<path id="Path 128" d="M27.1252 8.14587V17.303L36.2823 12.7244L27.1252 8.14587ZM28.7554 10.7832L32.6379 12.7244L28.7554 14.6646V10.7832Z" fill="white"/>
<path id="Path 129" d="M46.6845 0.5H15.7148C14.6343 0.501059 13.5983 0.930779 12.8342 1.69485C12.0701 2.45892 11.6404 3.49492 11.6394 4.57548V20.4774L2.73831 25.3289C2.35658 25.5268 2.06868 25.8677 1.9375 26.2772C1.80632 26.6866 1.84254 27.1314 2.03823 27.5142L2.43827 28.2903C2.07099 28.7244 1.86812 29.2739 1.86521 29.8425V34.15C1.37075 34.4869 0.964251 34.9375 0.679747 35.4638C0.395244 35.9902 0.241025 36.5771 0.230011 37.1754C0.242953 37.8152 0.506215 38.4245 0.963293 38.8724C1.42037 39.3203 2.03483 39.5712 2.6748 39.5712C3.31477 39.5712 3.92923 39.3203 4.38631 38.8724C4.84339 38.4245 5.10665 37.8152 5.11959 37.1754C5.10946 36.5772 4.95615 35.9902 4.67252 35.4635C4.3889 34.9368 3.9832 34.4857 3.4894 34.148V29.8395C3.49058 29.7822 3.49762 29.7253 3.5104 29.6695C3.57791 29.7043 3.64775 29.7343 3.71943 29.7595C3.88086 29.8122 4.04966 29.8388 4.21948 29.8385C4.48419 29.8371 4.74476 29.7727 4.97958 29.6505L5.44963 29.3934L6.94981 32.4118L7.57988 32.2608L7.77991 32.2098C8.14132 33.4859 8.93773 34.5954 10.0312 35.3461C8.34737 35.9998 6.90003 37.1465 5.87847 38.6361C4.85691 40.1257 4.30868 41.8889 4.30549 43.6951V51.03H19.7903V46.6835L19.8713 46.7915C20.4786 47.6013 21.2661 48.2587 22.1715 48.7114C23.0769 49.1641 24.0752 49.3998 25.0875 49.3998C26.0997 49.3998 27.0981 49.1641 28.0034 48.7114C28.9088 48.2587 29.6963 47.6013 30.3036 46.7915L33.0339 43.1461C33.4265 42.6203 33.6393 41.982 33.641 41.3258V41.0258C33.639 40.4738 33.4861 39.9328 33.1987 39.4614C32.9114 38.99 32.5006 38.6062 32.0108 38.3515V34.7301H46.6845C47.7651 34.729 48.8011 34.2993 49.5652 33.5352C50.3292 32.7711 50.7589 31.7351 50.76 30.6546V4.57548C50.7589 3.49492 50.3292 2.45892 49.5652 1.69485C48.8011 0.930779 47.7651 0.501059 46.6845 0.5ZM13.2696 4.57548C13.2704 3.9272 13.5282 3.30569 13.9866 2.84728C14.4451 2.38887 15.0666 2.13099 15.7148 2.13019H46.6845C47.3328 2.13099 47.9543 2.38887 48.4127 2.84728C48.8711 3.30569 49.129 3.9272 49.1298 4.57548V23.3197H16.801L16.755 23.2277L17.277 22.9437C17.6588 22.7458 17.9467 22.4049 18.0778 21.9954C18.209 21.586 18.1728 21.1413 17.9771 20.7584L17.242 19.3162C17.1457 19.1254 17.0123 18.9557 16.8497 18.8169C16.6871 18.6782 16.4985 18.5732 16.2949 18.5081C16.0887 18.442 15.8715 18.4177 15.6558 18.4366C15.4401 18.4555 15.2303 18.5172 15.0388 18.6182L13.2646 19.5853L13.2696 4.57548ZM2.6753 37.9895C2.45921 37.9892 2.25204 37.9032 2.09923 37.7504C1.94643 37.5976 1.86047 37.3904 1.8602 37.1744C1.8602 36.5063 2.41427 35.5802 2.6723 35.5442C2.93533 35.5802 3.4894 36.5063 3.4894 37.1744C3.48913 37.3903 3.40331 37.5973 3.25072 37.7501C3.09814 37.9028 2.89122 37.9889 2.6753 37.9895ZM4.22549 28.2123L3.5054 26.7661L15.7959 20.0563L16.5319 21.5025L4.22549 28.2123ZM6.8788 28.6123L15.3238 24.0118L16.3339 26.04C15.1011 27.1082 13.7678 28.0544 12.3525 28.8654C10.9006 29.562 9.38422 30.1154 7.82491 30.5176L6.8788 28.6123ZM9.35709 31.7697C10.6487 31.3926 11.9044 30.9019 13.1095 30.3035C14.2741 29.6565 15.3804 28.9096 16.4159 28.0713C16.7998 28.5386 17.0746 29.0857 17.2205 29.6726C17.3664 30.2595 17.3797 30.8715 17.2595 31.4642C17.1392 32.0569 16.8883 32.6153 16.5252 33.0989C16.162 33.5825 15.6957 33.9791 15.16 34.2599C14.6244 34.5407 14.0329 34.6985 13.4286 34.7221C12.8242 34.7456 12.2223 34.6341 11.6664 34.3958C11.1106 34.1575 10.6148 33.7984 10.2152 33.3444C9.81553 32.8905 9.52206 32.3533 9.35609 31.7717L9.35709 31.7697ZM32.0148 41.3248C32.0138 41.6287 31.9153 41.9242 31.7338 42.1679L28.9994 45.8144C28.5437 46.4214 27.953 46.914 27.2741 47.2533C26.5951 47.5926 25.8465 47.7693 25.0875 47.7693C24.3284 47.7693 23.5798 47.5926 22.9008 47.2533C22.2219 46.914 21.6312 46.4214 21.1755 45.8144L17.9971 41.5769L16.697 42.554L18.1601 44.5052V49.3948H5.93069V43.6941C5.93307 41.7495 6.70661 39.8853 8.08165 38.5102C9.45669 37.1352 11.321 36.3616 13.2656 36.3593H14.2317C15.5662 36.3589 16.8811 36.6804 18.065 37.2964C19.2489 37.9123 20.2668 38.8046 21.0325 39.8977L24.2549 44.5052H25.8761L29.5335 40.1257C29.717 39.9007 29.9658 39.7382 30.2457 39.6609C30.5255 39.5835 30.8225 39.5951 31.0955 39.694C31.3685 39.7928 31.604 39.9741 31.7694 40.2127C31.9348 40.4514 32.022 40.7355 32.0188 41.0258L32.0148 41.3248ZM30.3846 38.0145C29.9795 38.0413 29.584 38.1498 29.2219 38.3333C28.8598 38.5169 28.5385 38.7717 28.2773 39.0826L25.113 42.883L22.3626 38.9666C22.3226 38.9096 22.2756 38.8606 22.2346 38.8055V28.2103H30.3846V38.0145ZM46.6865 33.0999H32.0148V29.8395H47.4996V28.2093H32.0148V26.5791H20.6054V37.0603C19.5088 36.1418 18.2268 35.4708 16.847 35.0931C17.435 34.6219 17.9234 34.0384 18.2838 33.3766C18.6442 32.7149 18.8693 31.988 18.9461 31.2384C19.0229 30.4888 18.9498 29.7314 18.731 29.0103C18.5123 28.2892 18.1524 27.6188 17.6721 27.0382L17.8901 26.8471L18.3522 26.4331L17.6131 24.9489H49.1298V30.6496C49.1306 30.9713 49.068 31.2901 48.9455 31.5876C48.823 31.8852 48.643 32.1557 48.4159 32.3836C48.1888 32.6115 47.919 32.7925 47.6219 32.9161C47.3248 33.0397 47.0063 33.1035 46.6845 33.1039L46.6865 33.0999Z" fill="white"/>
<path id="Path 130" d="M23.8648 33.0999H28.7538V34.7299H23.8648V33.0999Z" fill="white"/>
<path id="Path 131" d="M23.8648 36.3602H27.1248V37.9902H23.8648V36.3602Z" fill="white"/>
<path id="Path 132" d="M23.8648 29.8395H28.7538V31.4695H23.8648V29.8395Z" fill="white"/>
<path id="Path 133" d="M14.8997 10.2802H16.5297V11.9102H14.8997V10.2802Z" fill="white"/>
<path id="Path 134" d="M45.8704 20.0603H47.5004V21.6903H45.8704V20.0603Z" fill="white"/>
<path id="Path 135" d="M45.8704 16.7999H47.5004V18.4299H45.8704V16.7999Z" fill="white"/>
<path id="Path 136" d="M45.8704 13.5396H47.5004V15.1695H45.8704V13.5396Z" fill="white"/>
<path id="Path 137" d="M16.5297 5.39038H23.0487V3.76038H16.5297C16.0975 3.76064 15.6831 3.93246 15.3775 4.23808C15.0718 4.54371 14.9 4.95815 14.8997 5.39038V8.65038H16.5297V5.39038Z" fill="white"/>
</g>
</g>
<defs>
<clipPath id="clip0_1_1637">
<rect width="50.53" height="50.53" fill="white" transform="translate(0.230011 0.5)"/>
</clipPath>
</defs>
</svg>
