<svg width="43" height="55" viewBox="0 0 43 55" fill="none" xmlns="http://www.w3.org/2000/svg">
<g id="student.svg" clip-path="url(#clip0_1_1607)">
<g id="student">
<g id="Group 158">
<path id="Path 126" d="M38.5588 43.3952L28.634 37.4367V34.6665C29.8587 33.0614 30.7249 31.2124 31.1742 29.2441C31.2691 28.7557 31.506 28.3062 31.8553 27.952C32.2512 27.5583 32.5651 27.09 32.7788 26.5741C32.9926 26.0583 33.1018 25.5051 33.1004 24.9468V21.7715C33.0995 21.112 32.9458 20.4616 32.6513 19.8714L32.4653 19.5014C32.2948 19.1597 32.2058 18.7831 32.2053 18.4013V12.6579L39.0638 10.1577C39.4089 10.0336 39.7073 9.80605 39.9183 9.50606C40.1292 9.20607 40.2424 8.84828 40.2424 8.48155C40.2424 8.11482 40.1292 7.75703 39.9183 7.45704C39.7073 7.15705 39.4089 6.92948 39.0638 6.80543L22.1125 0.609962C21.7104 0.463509 21.2696 0.463509 20.8675 0.609962L3.91619 6.80043C3.57017 6.92315 3.27084 7.15036 3.05961 7.45064C2.84837 7.75092 2.73567 8.10942 2.7371 8.47655V14.727C2.7371 14.9639 2.83119 15.191 2.99867 15.3585C3.16616 15.526 3.39331 15.6201 3.63016 15.6201C3.86702 15.6201 4.09417 15.526 4.26166 15.3585C4.42914 15.191 4.52323 14.9639 4.52323 14.727V10.3747L10.7737 12.6579V18.4013C10.7732 18.7831 10.6841 19.1597 10.5137 19.5014L10.3297 19.8694C10.0352 20.4596 9.88152 21.11 9.88063 21.7695V24.9438C9.87926 25.5026 9.98878 26.0562 10.2028 26.5724C10.4169 27.0886 10.7313 27.5572 11.1277 27.951C11.476 28.3049 11.7122 28.7536 11.8068 29.2411C12.255 31.2077 13.121 33.055 14.346 34.6575V37.4377L4.42422 43.3942C3.36971 44.0319 2.49687 44.9301 1.88952 46.0024C1.28216 47.0748 0.960688 48.2852 0.955963 49.5176V53.1249C0.955963 53.3617 1.05005 53.5889 1.21754 53.7564C1.38502 53.9239 1.61218 54.018 1.84903 54.018H41.136C41.3728 54.018 41.6 53.9239 41.7675 53.7564C41.9349 53.5889 42.029 53.3617 42.029 53.1249V49.5196C42.0243 48.2869 41.7026 47.0761 41.0949 46.0036C40.4871 44.931 39.6138 44.0328 38.5588 43.3952ZM30.1261 40.4159L25.2208 43.0931L23.0536 40.926L27.682 38.9418C27.695 38.9498 27.705 38.9618 27.719 38.9698L30.1261 40.4159ZM23.1146 43.5162L21.9345 45.0933H21.0435L19.8644 43.5132L21.4895 41.888L23.1146 43.5162ZM4.52923 8.47855L21.5035 2.28809L38.4648 8.46955L38.4518 8.47555L21.4805 14.667L4.52923 8.47855ZM30.4202 13.3099V16.8102L23.2876 19.7314C22.1347 20.207 20.8403 20.207 19.6874 19.7314L12.5548 16.8102V13.3099L20.8625 16.3441C21.2646 16.4906 21.7054 16.4906 22.1075 16.3441L30.4202 13.3099ZM13.5569 28.8891C13.3929 28.0564 12.9861 27.2909 12.3878 26.6889C12.1582 26.4605 11.9762 26.1888 11.8523 25.8896C11.7283 25.5904 11.665 25.2696 11.6658 24.9458V21.7715C11.6663 21.3897 11.7553 21.0132 11.9258 20.6715L12.1098 20.3034C12.3529 19.8119 12.499 19.2781 12.5398 18.7313L19.0143 21.3835C20.5994 22.037 22.3786 22.037 23.9637 21.3835L30.4382 18.7313C30.4788 19.2781 30.6245 19.8118 30.8672 20.3034L31.0512 20.6715C31.2217 21.0132 31.3107 21.3897 31.3112 21.7715V24.9458C31.312 25.2699 31.2485 25.5909 31.1244 25.8903C31.0003 26.1896 30.818 26.4614 30.5882 26.6899C29.9906 27.2921 29.5846 28.0576 29.4211 28.8901C29.0175 30.6104 28.2532 32.2255 27.1789 33.6284C26.9636 33.9296 26.8473 34.2903 26.8459 34.6605V37.3607L21.4875 39.6609L16.1291 37.3607V34.6605C16.1272 34.2862 16.0084 33.9218 15.7891 33.6184C14.719 32.2176 13.9582 30.6056 13.5569 28.8891ZM15.25 38.9778C15.267 38.9678 15.279 38.9528 15.296 38.9428L19.9264 40.927L17.7592 43.0931L12.8529 40.4159L15.25 38.9778ZM2.7371 52.2338V49.5196C2.73374 48.5941 2.97181 47.6838 3.4278 46.8784C3.8838 46.073 4.54195 45.4005 5.33729 44.9273L10.4477 41.859L16.3791 52.2338H2.7371ZM17.7492 51.0337L12.8428 42.4451L17.4902 44.9803C17.6596 45.0726 17.8543 45.1075 18.0452 45.08C18.2361 45.0524 18.4129 44.9637 18.5493 44.8273L18.5883 44.7883L19.5884 46.1254L17.7492 51.0337ZM19.2063 52.2338L21.2155 46.8754H21.7635L23.7727 52.2338H19.2063ZM23.3906 46.1264L24.3907 44.7893L24.4297 44.8283C24.5661 44.9647 24.7429 45.0534 24.9338 45.081C25.1247 45.1085 25.3194 45.0736 25.4888 44.9813L30.1361 42.4461L25.2298 51.0327L23.3906 46.1264ZM26.6039 52.2338L32.5323 41.858L37.6427 44.9263C38.438 45.3996 39.0961 46.0721 39.5521 46.8775C40.008 47.6828 40.2462 48.5931 40.2429 49.5186V52.2338H26.6039Z" fill="white"/>
</g>
</g>
</g>
<defs>
<clipPath id="clip0_1_1607">
<rect width="41.0781" height="53.52" fill="white" transform="translate(0.950958 0.5)"/>
</clipPath>
</defs>
</svg>
