<svg width="45" height="57" viewBox="0 0 45 57" fill="none" xmlns="http://www.w3.org/2000/svg">
<g id="teacher.svg" clip-path="url(#clip0_1_1595)">
<g id="teacher">
<path id="Path 99" d="M15.2646 20.3712H20.6846V22.1782H15.2646V20.3712Z" fill="white"/>
<path id="Path 100" d="M41.4573 23.9839H40.5574V21.2741C40.5574 20.5555 40.2719 19.8662 39.7637 19.3581C39.2555 18.8499 38.5663 18.5644 37.8476 18.5644C37.1289 18.5644 36.4397 18.8499 35.9315 19.3581C35.4234 19.8662 35.1379 20.5555 35.1379 21.2741V24.1499C34.6099 24.3354 34.1525 24.68 33.8285 25.1363C33.5046 25.5926 33.3301 26.1381 33.329 26.6977V28.8135C33.3274 29.4068 33.4435 29.9946 33.6706 30.5428C33.8977 31.091 34.2312 31.5887 34.6519 32.0072L35.0709 32.4262L34.3839 36.5438C33.2745 34.0949 31.6055 31.9408 29.5113 30.2549C27.4172 28.569 24.9563 27.3985 22.327 26.8377L21.966 25.3948C23.0319 24.9997 23.9718 24.325 24.687 23.4414C25.4022 22.5579 25.8664 21.498 26.0307 20.3732H26.1027C26.7558 20.3743 27.397 20.198 27.9578 19.8632C28.5185 19.5284 28.9779 19.0476 29.2869 18.4722C29.5959 17.8967 29.7428 17.2482 29.7121 16.5958C29.6813 15.9434 29.4741 15.3116 29.1124 14.7677L29.4004 13.6158C29.7905 12.0597 29.8207 10.4351 29.4885 8.8656C29.1563 7.29609 28.4706 5.823 27.4834 4.55839C26.4963 3.29377 25.2337 2.27093 23.7918 1.56768C22.3499 0.864425 20.7666 0.499274 19.1623 0.500001H16.7855C15.1815 0.499503 13.5985 0.864742 12.1569 1.56795C10.7153 2.27115 9.45302 3.29381 8.46603 4.55817C7.47903 5.82252 6.79332 7.29528 6.46104 8.86446C6.12875 10.4336 6.15863 12.0579 6.54842 13.6138L6.83639 14.7667C6.47601 15.3104 6.26978 15.9415 6.23968 16.5931C6.20957 17.2446 6.35671 17.8921 6.66543 18.4667C6.97414 19.0412 7.43288 19.5213 7.99281 19.8558C8.55273 20.1903 9.19289 20.3667 9.84512 20.3662H9.91711C10.0815 21.491 10.5457 22.5508 11.2609 23.4343C11.9761 24.3179 12.9159 24.9926 13.9818 25.3878L13.6248 26.8127C10.0357 27.4841 6.79288 29.3855 4.45448 32.1899C2.11607 34.9942 0.828348 38.526 0.812927 42.1773V46.5639C0.817161 49.1972 1.86538 51.7213 3.72777 53.583C5.59016 55.4446 8.11475 56.4918 10.748 56.495H18.8773C19.732 56.4932 20.5584 56.1881 21.2092 55.634C21.8599 55.0799 22.2929 54.3128 22.431 53.4693C23.4941 53.0838 24.6159 52.8852 25.7467 52.8823H29.7163V50.8665L30.9752 52.3764C31.8225 53.3929 32.9623 54.1237 34.2397 54.4694C35.517 54.815 36.8698 54.7588 38.1141 54.3083C39.3583 53.8578 40.4336 53.0349 41.1935 51.9515C41.9534 50.8682 42.3612 49.577 42.3612 48.2537V32.4861L42.8442 32.0032C43.2649 31.5847 43.5984 31.087 43.8255 30.5388C44.0525 29.9906 44.1686 29.4028 44.1671 28.8095V26.6977C44.1663 25.9792 43.8805 25.2905 43.3725 24.7825C42.8645 24.2744 42.1757 23.9887 41.4573 23.9879V23.9839ZM37.8446 20.3712C38.0833 20.3712 38.3122 20.466 38.481 20.6348C38.6497 20.8036 38.7445 21.0325 38.7445 21.2711V24.1469C38.4123 24.2657 38.1066 24.4484 37.8446 24.6848C37.5829 24.4481 37.2771 24.2653 36.9447 24.1469V21.2741C36.9443 21.1557 36.9673 21.0384 37.0123 20.9288C37.0574 20.8193 37.1236 20.7197 37.2072 20.6359C37.2908 20.552 37.3902 20.4854 37.4995 20.44C37.6089 20.3946 37.7262 20.3712 37.8446 20.3712ZM18.7593 49.2736C18.6054 48.7834 18.3085 48.3504 17.9067 48.0301C17.505 47.7098 17.0167 47.5167 16.5045 47.4758C15.9923 47.4349 15.4796 47.5479 15.0321 47.8003C14.5845 48.0528 14.2226 48.4331 13.9928 48.8927L13.8028 49.2736H11.652V40.2415H13.8118C15.5958 40.2415 17.3461 40.7279 18.8743 41.6483V49.2736H18.7593ZM16.3115 29.5794L13.8488 31.5492L12.7749 28.8635C13.255 28.7293 13.742 28.6212 14.2337 28.5395L16.3115 29.5794ZM17.7574 34.8229H18.2014L19.6872 40.0225C18.7313 39.4654 17.7006 39.0479 16.6265 38.7826L17.7574 34.8229ZM18.3234 33.0161H17.6334L16.8545 31.4592L17.9784 30.5593L19.1023 31.4592L18.3234 33.0161ZM19.6452 29.5794L21.7111 28.5455C22.204 28.6455 22.687 28.7675 23.1629 28.9105L22.107 31.5492L19.6452 29.5794ZM24.3008 14.9517C24.3008 15.3091 24.1949 15.6584 23.9963 15.9555C23.7978 16.2527 23.5156 16.4843 23.1854 16.621C22.8553 16.7578 22.492 16.7935 22.1415 16.7238C21.791 16.6541 21.4691 16.482 21.2164 16.2293C20.9637 15.9766 20.7916 15.6547 20.7219 15.3042C20.6522 14.9537 20.6879 14.5904 20.8247 14.2603C20.9614 13.9301 21.193 13.6479 21.4902 13.4494C21.7873 13.2508 22.1366 13.1449 22.494 13.1449C22.9724 13.1462 23.4308 13.3371 23.7687 13.6758C24.1067 14.0145 24.2966 14.4733 24.2968 14.9517H24.3008ZM26.1077 18.5644V14.9517C26.3485 14.946 26.5879 14.9886 26.8121 15.0768C27.0362 15.165 27.2404 15.2972 27.4127 15.4655C27.585 15.6338 27.7219 15.8348 27.8154 16.0568C27.9089 16.2788 27.957 16.5172 27.957 16.7581C27.957 16.9989 27.9089 17.2373 27.8154 17.4593C27.7219 17.6813 27.585 17.8823 27.4127 18.0506C27.2404 18.2189 27.0362 18.3511 26.8121 18.4393C26.5879 18.5275 26.3485 18.5701 26.1077 18.5644ZM16.7865 2.30684H19.1633C20.4925 2.3073 21.8042 2.61063 22.9987 3.19379C24.1932 3.77694 25.2391 4.6246 26.057 5.6724C26.8749 6.7202 27.4433 7.94058 27.7191 9.2409C27.9949 10.5412 27.9707 11.8873 27.6485 13.1769L27.5765 13.4668C27.1141 13.256 26.6119 13.1463 26.1037 13.1449H26.0597C25.9531 12.1353 25.5091 11.1913 24.7994 10.4654C24.0897 9.73961 23.1559 9.27445 22.149 9.14523L21.6721 9.08523C20.9013 8.98689 20.1926 8.61141 19.6783 8.02888C19.164 7.44634 18.8793 6.69657 18.8773 5.91952H17.0705C17.0714 7.13675 17.5164 8.31182 18.322 9.22435C19.1276 10.1369 20.2384 10.7242 21.4461 10.8761L21.923 10.9361C22.3526 10.9928 22.7622 11.1523 23.1169 11.401C22.9101 11.3625 22.7004 11.3417 22.49 11.339C21.6911 11.3411 20.9155 11.6083 20.2848 12.0988C19.6542 12.5892 19.2041 13.275 19.0053 14.0488H16.9425C16.8095 13.5119 16.5535 13.0133 16.1947 12.5924C15.8359 12.1714 15.3841 11.8397 14.8751 11.6233C14.366 11.4069 13.8136 11.3119 13.2616 11.3457C12.7095 11.3795 12.1728 11.5412 11.694 11.818C11.792 11.1988 12.1025 10.6331 12.5721 10.2179C13.0417 9.80261 13.6412 9.56373 14.2677 9.54219C14.8103 10.5699 15.6008 11.446 16.5675 12.091L17.5674 10.5911C16.8572 10.1186 16.275 9.4777 15.8725 8.7256C15.47 7.9735 15.2598 7.13351 15.2606 6.28049V5.91952H13.4578V6.27648C13.4606 6.78901 13.5197 7.29968 13.6338 7.79935C12.5784 7.97068 11.6181 8.51128 10.9242 9.32476C10.2303 10.1382 9.84789 11.1717 9.84512 12.241V13.1409C9.33686 13.1423 8.83473 13.252 8.37225 13.4628L8.30026 13.1729C7.97874 11.8835 7.95517 10.5378 8.23133 9.23788C8.50749 7.938 9.07612 6.7181 9.89407 5.67077C10.712 4.62344 11.7578 3.7762 12.952 3.19333C14.1463 2.61047 15.4576 2.3073 16.7865 2.30684ZM13.4578 13.1459C13.8152 13.1459 14.1645 13.2518 14.4616 13.4504C14.7588 13.6489 14.9903 13.9311 15.1271 14.2613C15.2639 14.5914 15.2996 14.9547 15.2299 15.3052C15.1602 15.6557 14.9881 15.9776 14.7354 16.2303C14.4827 16.483 14.1608 16.6551 13.8103 16.7248C13.4598 16.7945 13.0965 16.7588 12.7664 16.622C12.4362 16.4853 12.154 16.2537 11.9555 15.9565C11.7569 15.6594 11.651 15.3101 11.651 14.9527C11.651 14.4734 11.8413 14.0137 12.1801 13.6747C12.5189 13.3357 12.9785 13.1451 13.4578 13.1449V13.1459ZM8.03828 16.7586C8.03855 16.2794 8.22899 15.82 8.56779 15.4812C8.90658 15.1424 9.366 14.952 9.84512 14.9517V18.5644C9.366 18.5641 8.90658 18.3737 8.56779 18.0349C8.22899 17.6961 8.03855 17.2377 8.03828 16.7586ZM11.651 19.4683V18.0624C12.1298 18.3474 12.6687 18.5164 13.2245 18.5558C13.7804 18.5952 14.3377 18.504 14.852 18.2894C15.3663 18.0748 15.8232 17.7429 16.1862 17.3201C16.5492 16.8973 16.8082 16.3954 16.9425 15.8546H19.0053C19.1396 16.3954 19.3986 16.8973 19.7616 17.3201C20.1246 17.7429 20.5815 18.0748 21.0958 18.2894C21.6101 18.504 22.1674 18.5952 22.7232 18.5558C23.2791 18.5164 23.818 18.3474 24.2968 18.0624V19.4683C24.2952 20.6654 23.819 21.8131 22.9725 22.6596C22.126 23.5061 20.9784 23.9823 19.7812 23.9839H16.1676C14.9704 23.9823 13.8228 23.5061 12.9763 22.6596C12.1298 21.8131 11.6525 20.6654 11.651 19.4683ZM16.1666 25.7907H19.7792C19.9202 25.7907 20.0592 25.7787 20.1972 25.7697L20.5332 27.1126L17.9744 28.3975L15.4116 27.1126L15.7476 25.7697C15.8876 25.7787 16.0266 25.7897 16.1676 25.7897L16.1666 25.7907ZM2.61977 46.5639V42.1773C2.63208 39.4645 3.43798 36.8147 4.93811 34.5545C6.43825 32.2942 8.56703 30.5224 11.062 29.4574L13.0728 34.483L15.4116 32.6141L16.1116 34.014L14.8327 38.4896C14.4957 38.4596 14.1587 38.4396 13.8188 38.4396H9.84912V49.1077C9.32219 48.9221 8.86562 48.5779 8.54211 48.1224C8.2186 47.667 8.044 47.1225 8.04228 46.5639V36.6288H6.23244V46.5639C6.23403 47.761 6.71029 48.9086 7.55678 49.7551C8.40328 50.6016 9.55092 51.0779 10.748 51.0795H13.4578V54.6952H10.748C8.5925 54.6928 6.52597 53.8352 5.00205 52.3108C3.47814 50.7863 2.62135 48.7194 2.61977 46.5639ZM18.8773 54.6952H15.2646V50.3955L15.6096 49.7056C15.6875 49.5504 15.8155 49.4259 15.9729 49.3524C16.1302 49.2789 16.3078 49.2606 16.4768 49.3005C16.6459 49.3404 16.7965 49.4361 16.9044 49.5723C17.0123 49.7084 17.0712 49.8769 17.0715 50.0506V51.0855H18.8783C19.1191 51.0798 19.3586 51.1224 19.5827 51.2106C19.8068 51.2988 20.011 51.431 20.1833 51.5993C20.3556 51.7675 20.4925 51.9686 20.586 52.1906C20.6795 52.4125 20.7277 52.651 20.7277 52.8918C20.7277 53.1327 20.6795 53.3711 20.586 53.5931C20.4925 53.815 20.3556 54.0161 20.1833 54.1844C20.011 54.3527 19.8068 54.4848 19.5827 54.5731C19.3586 54.6613 19.1191 54.7038 18.8783 54.6982L18.8773 54.6952ZM27.9105 51.0805H25.7467C24.5594 51.08 23.379 51.2621 22.247 51.6204C21.953 50.8438 21.4004 50.1923 20.6822 49.7756V41.6483C22.2104 40.7279 23.9607 40.2416 25.7447 40.2415H27.9105V51.0805ZM35.9228 52.8873C35.2436 52.8881 34.5725 52.7392 33.9574 52.4511C33.3423 52.163 32.7983 51.7428 32.3641 51.2205L29.7163 48.0438V38.4356H25.7467C24.24 38.4361 22.7478 38.7296 21.3531 39.2995L19.8422 34.009L20.5422 32.6091L22.879 34.478L24.8588 29.5294C26.9328 30.4289 28.783 31.7745 30.2778 33.4705C31.7725 35.1664 32.8751 37.171 33.507 39.3415L33.77 40.2345L32.4391 48.2177L34.2209 48.5177L36.8047 33.0191H40.5554V48.2577C40.5541 49.486 40.0656 50.6635 39.1971 51.532C38.3286 52.4005 37.151 52.889 35.9228 52.8903V52.8873ZM41.5683 30.7273L41.0853 31.2103H36.4097L35.9268 30.7273C35.6746 30.4759 35.4746 30.1772 35.3383 29.8482C35.2021 29.5192 35.1323 29.1665 35.1329 28.8105V26.6977C35.1329 26.4581 35.228 26.2283 35.3975 26.0588C35.5669 25.8894 35.7967 25.7942 36.0363 25.7942C36.2759 25.7942 36.5057 25.8894 36.6751 26.0588C36.8445 26.2283 36.9397 26.4581 36.9397 26.6977C36.9405 27.4161 37.2262 28.1049 37.7342 28.6129C38.2423 29.1209 38.931 29.4066 39.6495 29.4074H42.2952C42.1826 29.9072 41.9302 30.3646 41.5673 30.7263L41.5683 30.7273ZM42.3622 27.5976H39.6525C39.4129 27.5976 39.1831 27.5024 39.0136 27.333C38.8442 27.1636 38.749 26.9338 38.749 26.6942C38.749 26.4546 38.8442 26.2248 39.0136 26.0553C39.1831 25.8859 39.4129 25.7907 39.6525 25.7907H41.4593C41.698 25.7907 41.9269 25.8856 42.0956 26.0543C42.2644 26.2231 42.3592 26.452 42.3592 26.6907L42.3622 27.5976Z" fill="white"/>
</g>
</g>
<defs>
<clipPath id="clip0_1_1595">
<rect width="43.3541" height="56" fill="white" transform="translate(0.812927 0.5)"/>
</clipPath>
</defs>
</svg>
