<svg width="52" height="47" viewBox="0 0 52 47" fill="none" xmlns="http://www.w3.org/2000/svg">
<g id="video.svg" clip-path="url(#clip0_1_1619)">
<g id="video">
<path id="Path 118" d="M48.7167 4.61596H38.841V1.32375C38.8412 1.17949 38.8034 1.03773 38.7315 0.912684C38.6596 0.787636 38.556 0.683694 38.4313 0.611284C38.3065 0.538874 38.1649 0.500541 38.0206 0.500125C37.8764 0.49971 37.7345 0.537229 37.6093 0.608919L33.0794 3.1973V1.32375C33.0784 1.10622 32.9912 0.897964 32.837 0.744522C32.6828 0.591081 32.4742 0.504942 32.2566 0.504944H14.9727C14.7545 0.504944 14.5452 0.591632 14.3909 0.745937C14.2366 0.900243 14.1499 1.10953 14.1499 1.32775V4.61996H4.2733C3.40227 4.6218 2.56731 4.96801 1.95056 5.58308C1.33381 6.19815 0.985308 7.03216 0.981087 7.90318V35.8865C0.982936 36.7591 1.33039 37.5954 1.9474 38.2124C2.56441 38.8294 3.40072 39.1769 4.2733 39.1787H21.2383L20.1385 42.4709H17.4392C17.2209 42.4709 17.0117 42.5576 16.8573 42.7119C16.703 42.8662 16.6164 43.0755 16.6164 43.2937V45.7631C16.6164 45.9814 16.703 46.1906 16.8573 46.345C17.0117 46.4993 17.2209 46.5859 17.4392 46.5859H35.5488C35.7671 46.5859 35.9763 46.4993 36.1306 46.345C36.285 46.1906 36.3716 45.9814 36.3716 45.7631V43.2947C36.3716 43.0765 36.285 42.8672 36.1306 42.7129C35.9763 42.5586 35.7671 42.4719 35.5488 42.4719H32.8495L31.7497 39.1797H48.7167C49.5893 39.1779 50.4256 38.8304 51.0426 38.2134C51.6596 37.5964 52.0071 36.7601 52.0089 35.8875V7.90318C52.0057 7.03147 51.6577 6.19643 51.0408 5.5805C50.424 4.96457 49.5884 4.61781 48.7167 4.61596ZM33.0794 5.09285L37.1944 2.74241V13.0739L33.0794 10.7225V5.09285ZM15.7956 2.14655H31.4338V13.6698H15.7956V2.14655ZM34.725 44.1215V44.9443H18.265V44.1215H34.725ZM21.8761 42.4759L22.9758 39.1837H30.0192L31.1189 42.4759H21.8761ZM50.3633 35.8915C50.3625 36.3277 50.1889 36.7458 49.8804 37.0542C49.572 37.3627 49.1539 37.5363 48.7177 37.5371H4.2733C3.8371 37.5363 3.419 37.3627 3.11056 37.0542C2.80212 36.7458 2.62849 36.3277 2.62769 35.8915V34.2449H50.3633V35.8915ZM50.3633 32.5993H2.62669V7.90318C2.62749 7.46698 2.80112 7.04887 3.10956 6.74043C3.418 6.43199 3.8361 6.25837 4.2723 6.25757H14.1489V14.4876C14.1489 14.7058 14.2356 14.9151 14.3899 15.0694C14.5442 15.2237 14.7535 15.3104 14.9717 15.3104H32.2566C32.4748 15.3104 32.6841 15.2237 32.8384 15.0694C32.9927 14.9151 33.0794 14.7058 33.0794 14.4876V12.6191L37.6093 15.2074C37.7345 15.2791 37.8764 15.3166 38.0206 15.3162C38.1649 15.3158 38.3065 15.2775 38.4313 15.2051C38.556 15.1327 38.6596 15.0287 38.7315 14.9037C38.8034 14.7786 38.8412 14.6369 38.841 14.4926V6.26257H48.7177C49.153 6.26336 49.5704 6.4363 49.8787 6.74366C50.187 7.05102 50.3612 7.46785 50.3633 7.90318V32.5993Z" fill="white"/>
<path id="Path 119" d="M10.0349 35.0687H5.09611C4.87788 35.0687 4.6686 35.1554 4.51429 35.3097C4.35999 35.464 4.2733 35.6733 4.2733 35.8915C4.2733 36.1097 4.35999 36.319 4.51429 36.4733C4.6686 36.6276 4.87788 36.7143 5.09611 36.7143H10.0339C10.2521 36.7143 10.4614 36.6276 10.6157 36.4733C10.77 36.319 10.8567 36.1097 10.8567 35.8915C10.8567 35.6733 10.77 35.464 10.6157 35.3097C10.4614 35.1554 10.2531 35.0687 10.0349 35.0687Z" fill="white"/>
<path id="Path 120" d="M13.3265 35.0687H12.5035C12.2853 35.0687 12.0759 35.1554 11.9216 35.3098C11.7672 35.4641 11.6805 35.6735 11.6805 35.8917C11.6805 36.11 11.7672 36.3193 11.9216 36.4737C12.0759 36.628 12.2853 36.7147 12.5035 36.7147H13.3265C13.5448 36.7147 13.7541 36.628 13.9085 36.4737C14.0628 36.3193 14.1495 36.11 14.1495 35.8917C14.1495 35.6735 14.0628 35.4641 13.9085 35.3098C13.7541 35.1554 13.5448 35.0687 13.3265 35.0687Z" fill="white"/>
<path id="Path 121" d="M16.6184 29.3071H36.3706C37.2432 29.3052 38.0795 28.9578 38.6966 28.3408C39.3136 27.7238 39.661 26.8874 39.6629 26.0149V20.2533C39.6607 19.3809 39.3132 18.5448 38.6962 17.928C38.0792 17.3112 37.2431 16.9639 36.3706 16.962H16.6184C15.7458 16.9639 14.9095 17.3113 14.2924 17.9283C13.6754 18.5454 13.328 19.3817 13.3261 20.2542V26.0159C13.328 26.8885 13.6754 27.7248 14.2924 28.3418C14.9095 28.9588 15.7458 29.3052 16.6184 29.3071ZM14.9728 20.2533C14.9733 19.817 15.1468 19.3987 15.4553 19.0902C15.7638 18.7817 16.1821 18.6082 16.6184 18.6076H36.3706C36.8069 18.6082 37.2252 18.7817 37.5337 19.0902C37.8422 19.3987 38.0157 19.817 38.0162 20.2533V26.0149C38.0157 26.4511 37.8422 26.8694 37.5337 27.1779C37.2252 27.4864 36.8069 27.66 36.3706 27.6605H16.6184C16.1821 27.66 15.7638 27.4864 15.4553 27.1779C15.1468 26.8694 14.9733 26.4511 14.9728 26.0149V20.2533Z" fill="white"/>
<path id="Path 122" d="M17.4411 26.8376H20.7334C20.9516 26.8376 21.1609 26.7509 21.3152 26.5966C21.4695 26.4423 21.5562 26.233 21.5562 26.0148C21.5562 25.7966 21.4695 25.5873 21.3152 25.433C21.1609 25.2787 20.9516 25.192 20.7334 25.192H18.264V20.2542C18.264 20.036 18.1773 19.8267 18.023 19.6724C17.8687 19.5181 17.6594 19.4314 17.4411 19.4314C17.2229 19.4314 17.0137 19.5181 16.8593 19.6724C16.705 19.8267 16.6183 20.036 16.6183 20.2542V26.0158C16.6186 26.2339 16.7054 26.4429 16.8597 26.597C17.014 26.7511 17.2231 26.8376 17.4411 26.8376Z" fill="white"/>
<path id="Path 123" d="M23.2028 26.8376C23.421 26.8376 23.6303 26.751 23.7846 26.5967C23.9389 26.4424 24.0256 26.2331 24.0256 26.0148V20.2532C24.0256 20.1452 24.0043 20.0382 23.963 19.9384C23.9216 19.8385 23.861 19.7478 23.7846 19.6714C23.7082 19.595 23.6175 19.5344 23.5177 19.4931C23.4178 19.4517 23.3108 19.4304 23.2028 19.4304C23.0947 19.4304 22.9877 19.4517 22.8879 19.4931C22.7881 19.5344 22.6974 19.595 22.621 19.6714C22.5446 19.7478 22.484 19.8385 22.4426 19.9384C22.4013 20.0382 22.38 20.1452 22.38 20.2532V26.0148C22.38 26.2331 22.4667 26.4424 22.621 26.5967C22.7753 26.751 22.9846 26.8376 23.2028 26.8376Z" fill="white"/>
<path id="Path 124" d="M32.2566 26.8376H35.5488C35.7671 26.8376 35.9763 26.7509 36.1306 26.5966C36.2849 26.4423 36.3716 26.233 36.3716 26.0148C36.3716 25.7966 36.2849 25.5873 36.1306 25.433C35.9763 25.2787 35.7671 25.192 35.5488 25.192H33.0794V23.5464H33.9022C34.1204 23.5464 34.3297 23.4597 34.484 23.3054C34.6383 23.1511 34.725 22.9418 34.725 22.7236C34.725 22.5054 34.6383 22.2961 34.484 22.1418C34.3297 21.9875 34.1204 21.9008 33.9022 21.9008H33.0794V21.078H35.5488C35.7671 21.078 35.9763 20.9913 36.1306 20.837C36.2849 20.6827 36.3716 20.4734 36.3716 20.2552C36.3716 20.037 36.2849 19.8277 36.1306 19.6734C35.9763 19.5191 35.7671 19.4324 35.5488 19.4324H32.2566C32.0384 19.4324 31.8291 19.5191 31.6748 19.6734C31.5205 19.8277 31.4338 20.037 31.4338 20.2552V26.0168C31.4344 26.2347 31.5213 26.4434 31.6755 26.5973C31.8298 26.7512 32.0387 26.8376 32.2566 26.8376Z" fill="white"/>
<path id="Path 125" d="M27.3498 26.2408C27.3988 26.4129 27.5026 26.5643 27.6454 26.6721C27.7882 26.7799 27.9622 26.8382 28.1411 26.8382C28.32 26.8382 28.4941 26.7799 28.6368 26.6721C28.7796 26.5643 28.8834 26.4129 28.9324 26.2408L30.578 20.4792C30.6381 20.2693 30.6123 20.0442 30.5064 19.8533C30.4004 19.6625 30.223 19.5215 30.0132 19.4615C29.8033 19.4014 29.5782 19.4272 29.3873 19.5331C29.1964 19.639 29.0555 19.8164 28.9954 20.0263L28.1406 23.0176L27.2858 20.0263C27.2258 19.8164 27.0848 19.639 26.8939 19.5331C26.7031 19.4272 26.4779 19.4014 26.2681 19.4615C26.0582 19.5215 25.8808 19.6625 25.7748 19.8533C25.6689 20.0442 25.6431 20.2693 25.7032 20.4792L27.3498 26.2408Z" fill="white"/>
</g>
</g>
<defs>
<clipPath id="clip0_1_1619">
<rect width="51.0278" height="46.09" fill="white" transform="translate(0.981087 0.5)"/>
</clipPath>
</defs>
</svg>
